<svg width="24" height="24" viewBox="0 0 24 24" fill="none" xmlns="http://www.w3.org/2000/svg">
<path fill-rule="evenodd" clip-rule="evenodd" d="M2 4C2 2.34315 3.34315 1 5 1H19C20.6569 1 22 2.34315 22 4V20C22 21.6569 20.6569 23 19 23H5C3.34315 23 2 21.6569 2 20V4ZM6 6C6 5.44772 6.44772 5 7 5H15C15.5523 5 16 5.44772 16 6C16 6.55228 15.5523 7 15 7H7C6.44772 7 6 6.55228 6 6ZM6 10C6 9.44772 6.44772 9 7 9H17C17.5523 9 18 9.44772 18 10V18C18 18.5523 17.5523 19 17 19H7C6.44771 19 6 18.5523 6 18V10Z" fill="black"/>
</svg>
