<svg width="24" height="24" viewBox="0 0 24 24" fill="none" xmlns="http://www.w3.org/2000/svg">
<path d="M12 23C18.0751 23 23 18.0751 23 12C23 9.83684 22.3756 7.81951 21.2972 6.11842L12.7075 14.7168C12.52 14.9044 12.2656 15.0099 12.0002 15.01C11.7349 15.0101 11.4805 14.9047 11.2929 14.7171L7.29289 10.7171C6.90237 10.3266 6.90237 9.69342 7.29289 9.30289C7.68342 8.91237 8.31658 8.91237 8.70711 9.30289L11.9996 12.5954L20.0662 4.52084C18.0572 2.35524 15.1869 1 12 1C5.92487 1 1 5.92487 1 12C1 18.0751 5.92487 23 12 23Z" fill="black"/>
</svg>
