<svg width="225" height="42" viewBox="0 0 225 42" fill="none" xmlns="http://www.w3.org/2000/svg">
<path d="M0 42V0H36V6H42V24H36V30H12V42H0ZM12 24H30V6H12V24ZM63.6 6V0H75.6V6H63.6ZM51.6 42V36H63.6V18H57.6V12H75.6V36H87.6V42H51.6ZM97.2 42V36H91.2V18H97.2V12H133.2V18H103.2V36H133.2V42H97.2ZM136.8 42V0H148.8V24H160.8V18H166.8V12H178.8V18H172.8V24H166.8V30H172.8V36H178.8V42H166.8V36H160.8V30H148.8V42H136.8ZM188.4 42V36H182.4V18H188.4V12H218.4V18H224.4V36H218.4V42H188.4ZM194.4 36H212.4V18H194.4V36Z" fill="#F19762"/>
</svg>
